<svg xmlns="http://www.w3.org/2000/svg" viewBox="0 0 100 100">
  <defs>
    <linearGradient id="lockGradient" x1="0%" y1="0%" x2="0%" y2="100%">
      <stop offset="0%" style="stop-color:#00ff41;stop-opacity:1" />
      <stop offset="100%" style="stop-color:#00cc33;stop-opacity:1" />
    </linearGradient>
    <filter id="glow">
      <feGaussianBlur stdDeviation="2" result="coloredBlur"/>
      <feMerge>
        <feMergeNode in="coloredBlur"/>
        <feMergeNode in="SourceGraphic"/>
      </feMerge>
    </filter>
  </defs>
  <rect width="100" height="100" fill="#0a0a0a"/>
  <path d="M50 25 C40 25 35 30 35 40 L35 45 L30 45 C27 45 25 47 25 50 L25 70 C25 73 27 75 30 75 L70 75 C73 75 75 73 75 70 L75 50 C75 47 73 45 70 45 L65 45 L65 40 C65 30 60 25 50 25 Z M50 30 C57 30 60 33 60 40 L60 45 L40 45 L40 40 C40 33 43 30 50 30 Z M50 55 C52 55 54 57 54 59 C54 60.5 53 62 51.5 62.5 L51.5 67 C51.5 68 50.5 69 50 69 C49.5 69 48.5 68 48.5 67 L48.5 62.5 C47 62 46 60.5 46 59 C46 57 48 55 50 55 Z" fill="url(#lockGradient)" filter="url(#glow)"/>
</svg>
